<?xml version="1.0" encoding="UTF-8" standalone="no"?>
<!-- Created with Inkscape (http://www.inkscape.org/) -->

<svg
   xmlns:dc="http://purl.org/dc/elements/1.1/"
   xmlns:cc="http://creativecommons.org/ns#"
   xmlns:rdf="http://www.w3.org/1999/02/22-rdf-syntax-ns#"
   xmlns:svg="http://www.w3.org/2000/svg"
   xmlns="http://www.w3.org/2000/svg"
   xmlns:sodipodi="http://sodipodi.sourceforge.net/DTD/sodipodi-0.dtd"
   xmlns:inkscape="http://www.inkscape.org/namespaces/inkscape"
   width="35.433071"
   height="35.433071"
   id="svg2"
   version="1.1"
   inkscape:version="0.48.4 r9939"
   sodipodi:docname="cast-on.svg">
  <defs
     id="defs4">
    <linearGradient
       id="linearGradient5256">
      <stop
         style="stop-color:#acacac;stop-opacity:1;"
         offset="0"
         id="stop5258" />
      <stop
         style="stop-color:#acacac;stop-opacity:0.99342108;"
         offset="1"
         id="stop5260" />
    </linearGradient>
    <linearGradient
       id="linearGradient3798">
      <stop
         style="stop-color:#acacac;stop-opacity:1;"
         offset="0"
         id="stop3800" />
      <stop
         style="stop-color:#acacac;stop-opacity:0.68421054;"
         offset="1"
         id="stop3802" />
    </linearGradient>
  </defs>
  <sodipodi:namedview
     id="base"
     pagecolor="#ffffff"
     bordercolor="#666666"
     borderopacity="1.0"
     inkscape:pageopacity="0.0"
     inkscape:pageshadow="2"
     inkscape:zoom="22.86"
     inkscape:cx="11.176728"
     inkscape:cy="17.716536"
     inkscape:document-units="px"
     inkscape:current-layer="layer2"
     showgrid="true"
     units="cm"
     inkscape:window-width="1920"
     inkscape:window-height="1015"
     inkscape:window-x="0"
     inkscape:window-y="28"
     inkscape:window-maximized="1">
    <inkscape:grid
       type="xygrid"
       id="grid2985"
       empspacing="5"
       visible="true"
       enabled="true"
       snapvisiblegridlinesonly="true"
       units="cm"
       spacingx="0.0125cm"
       spacingy="0.0125cm"
       originx="0cm"
       originy="0cm"
       dotted="false" />
  </sodipodi:namedview>
  <metadata
     id="metadata7">
    <rdf:RDF>
      <cc:Work
         rdf:about="">
        <dc:format>image/svg+xml</dc:format>
        <dc:type
           rdf:resource="http://purl.org/dc/dcmitype/StillImage" />
        <dc:title />
      </cc:Work>
    </rdf:RDF>
  </metadata>
  <g
     inkscape:groupmode="layer"
     id="layer2"
     inkscape:label="Calque">
    <path
       inkscape:connector-curvature="0"
       id="path416-5"
       d="m 3.5900953,7.0134001 0,9.7466999 c 0.815585,0.1656 1.6093386,0.4071 2.3699205,0.701 l 0,-8.0776999 23.6324462,0 0,16.5559999 -15.187518,0 c 0.293943,0.7606 0.535362,1.5544 0.700963,2.3699 l 16.856475,0 0,-21.2958999 -28.3722867,0 z m 4.1390161,4.1389999 0,7.1432 c 2.4751446,1.3567 4.5179876,3.3996 5.8747336,5.8747 l 14.219522,0 0,-13.0179 -20.0942556,0 z m -5.9414909,7.1432 0,2.4033 c 4.9337277,0.5459 8.8670315,4.4458 9.4129235,9.3795 l 2.369922,0 C 13.008013,23.8376 8.0295966,18.8586 1.7876205,18.2956 z m 0,4.1724 0,2.4033 c 2.6437021,0.4861 4.7537799,2.5634 5.2405285,5.2071 l 2.3699205,0 C 8.8699205,26.1271 5.7389793,22.9961 1.7876205,22.468 z m 0,4.2058 0,3.4046 3.4046746,0 C 4.7646896,28.4177 3.4483622,27.1025 1.7876205,26.6738 z"
       style="fill:#acacac;fill-opacity:1;fill-rule:evenodd;stroke:none" />
  </g>
</svg>
