<?xml version="1.0" encoding="UTF-8" standalone="no"?>
<!-- Created with Inkscape (http://www.inkscape.org/) -->

<svg
   xmlns:dc="http://purl.org/dc/elements/1.1/"
   xmlns:cc="http://creativecommons.org/ns#"
   xmlns:rdf="http://www.w3.org/1999/02/22-rdf-syntax-ns#"
   xmlns:svg="http://www.w3.org/2000/svg"
   xmlns="http://www.w3.org/2000/svg"
   xmlns:sodipodi="http://sodipodi.sourceforge.net/DTD/sodipodi-0.dtd"
   xmlns:inkscape="http://www.inkscape.org/namespaces/inkscape"
   width="35.433071"
   height="35.433071"
   id="svg2"
   version="1.1"
   inkscape:version="0.48.4 r9939"
   sodipodi:docname="image.svg">
  <defs
     id="defs4">
    <linearGradient
       id="linearGradient5256">
      <stop
         style="stop-color:#acacac;stop-opacity:1;"
         offset="0"
         id="stop5258" />
      <stop
         style="stop-color:#acacac;stop-opacity:0.99342108;"
         offset="1"
         id="stop5260" />
    </linearGradient>
    <linearGradient
       id="linearGradient3798">
      <stop
         style="stop-color:#acacac;stop-opacity:1;"
         offset="0"
         id="stop3800" />
      <stop
         style="stop-color:#acacac;stop-opacity:0.68421054;"
         offset="1"
         id="stop3802" />
    </linearGradient>
  </defs>
  <sodipodi:namedview
     id="base"
     pagecolor="#ffffff"
     bordercolor="#666666"
     borderopacity="1.0"
     inkscape:pageopacity="0.0"
     inkscape:pageshadow="2"
     inkscape:zoom="22.831778"
     inkscape:cx="11.168644"
     inkscape:cy="17.716536"
     inkscape:document-units="px"
     inkscape:current-layer="layer2"
     showgrid="true"
     units="cm"
     inkscape:window-width="1920"
     inkscape:window-height="1015"
     inkscape:window-x="0"
     inkscape:window-y="28"
     inkscape:window-maximized="1">
    <inkscape:grid
       type="xygrid"
       id="grid2985"
       empspacing="5"
       visible="true"
       enabled="true"
       snapvisiblegridlinesonly="true"
       units="cm"
       spacingx="0.0125cm"
       spacingy="0.0125cm"
       originx="0cm"
       originy="0cm" />
  </sodipodi:namedview>
  <metadata
     id="metadata7">
    <rdf:RDF>
      <cc:Work
         rdf:about="">
        <dc:format>image/svg+xml</dc:format>
        <dc:type
           rdf:resource="http://purl.org/dc/dcmitype/StillImage" />
        <dc:title />
      </cc:Work>
    </rdf:RDF>
  </metadata>
  <g
     inkscape:groupmode="layer"
     id="layer2"
     inkscape:label="Calque">
    <path
       inkscape:connector-curvature="0"
       style="fill:#acacac;fill-opacity:1;fill-rule:evenodd;stroke:none"
       d="m 4,5.3125001 c -0.2453637,0 -0.46875,0.1921 -0.46875,0.4375 l 0,23.9374999 c 0,0.2454 0.2233863,0.4375 0.46875,0.4375 l 27.4375,0 c 0.245364,0 0.4375,-0.1921 0.4375,-0.4375 l 0,-23.9374999 c 0,-0.2454 -0.192136,-0.4375 -0.4375,-0.4375 l -27.4375,0 z m 3.53125,3.53125 20.375,0 c 0.245372,0 0.437456,0.22335 0.4375,0.46875 l 0,15.0624999 c -10.629922,0 -14.163386,-11.07705 -21.25,-2.21875 l 0,-12.8437499 c 1.364e-4,-0.2454 0.1921247,-0.46875 0.4375,-0.46875 z M 23.1875,10.1875 c -1.956915,0 -3.53125,1.605586 -3.53125,3.5625 0,1.956915 1.574335,3.53125 3.53125,3.53125 1.956914,0 3.5625,-1.574335 3.5625,-3.53125 l -0.0625,-0.53125 c -0.264718,-1.729802 -1.75006,-3.03125 -3.5,-3.03125 z"
       id="rect3010-9" />
  </g>
</svg>
