<?xml version="1.0" encoding="UTF-8" standalone="no"?>
<!-- Created with Inkscape (http://www.inkscape.org/) -->

<svg
   xmlns:dc="http://purl.org/dc/elements/1.1/"
   xmlns:cc="http://creativecommons.org/ns#"
   xmlns:rdf="http://www.w3.org/1999/02/22-rdf-syntax-ns#"
   xmlns:svg="http://www.w3.org/2000/svg"
   xmlns="http://www.w3.org/2000/svg"
   xmlns:sodipodi="http://sodipodi.sourceforge.net/DTD/sodipodi-0.dtd"
   xmlns:inkscape="http://www.inkscape.org/namespaces/inkscape"
   sodipodi:docname="menu.svg"
   inkscape:version="0.48.4 r9939"
   version="1.1"
   id="svg2"
   height="35.433071"
   width="35.433071">
  <defs
     id="defs4">
    <linearGradient
       id="linearGradient5256">
      <stop
         style="stop-color:#acacac;stop-opacity:1;"
         offset="0"
         id="stop5258" />
      <stop
         style="stop-color:#acacac;stop-opacity:0.99342108;"
         offset="1"
         id="stop5260" />
    </linearGradient>
    <linearGradient
       id="linearGradient3798">
      <stop
         style="stop-color:#acacac;stop-opacity:1;"
         offset="0"
         id="stop3800" />
      <stop
         style="stop-color:#acacac;stop-opacity:0.68421054;"
         offset="1"
         id="stop3802" />
    </linearGradient>
  </defs>
  <sodipodi:namedview
     id="base"
     pagecolor="#ffffff"
     bordercolor="#666666"
     borderopacity="1.0"
     inkscape:pageopacity="0.0"
     inkscape:pageshadow="2"
     inkscape:zoom="32.328922"
     inkscape:cx="9.0611152"
     inkscape:cy="20.978189"
     inkscape:document-units="px"
     inkscape:current-layer="svg2"
     showgrid="true"
     units="cm"
     inkscape:window-width="1920"
     inkscape:window-height="1015"
     inkscape:window-x="0"
     inkscape:window-y="28"
     inkscape:window-maximized="1">
    <inkscape:grid
       type="xygrid"
       id="grid2985"
       empspacing="5"
       visible="true"
       enabled="true"
       snapvisiblegridlinesonly="true"
       units="cm"
       spacingx="0.0125cm"
       spacingy="0.0125cm"
       originx="0cm"
       originy="0cm"
       dotted="false" />
  </sodipodi:namedview>
  <metadata
     id="metadata7">
    <rdf:RDF>
      <cc:Work
         rdf:about="">
        <dc:format>image/svg+xml</dc:format>
        <dc:type
           rdf:resource="http://purl.org/dc/dcmitype/StillImage" />
        <dc:title />
      </cc:Work>
    </rdf:RDF>
  </metadata>
  <g
     inkscape:groupmode="layer"
     id="layer1"
     inkscape:label="Calque">
    <path
       inkscape:connector-curvature="0"
       id="path3155-6-8"
       d="m 14.680193,24.8032 c 2.024228,0 4.048456,0 6.072685,0 0.708668,0.08 0.46262,0.8925 0.506964,1.3835 0,1.732 0,3.4641 0,5.1961 -0.08033,0.7087 -0.892591,0.4626 -1.38353,0.507 -1.73204,0 -3.464079,0 -5.196119,0 -0.708668,-0.08 -0.46262,-0.8926 -0.506965,-1.3836 0,-1.732 0,-3.464 0,-5.1961 -0.0073,-0.2718 0.235143,-0.5143 0.506965,-0.5069 z"
       style="fill:#acacac;fill-opacity:1;fill-rule:nonzero;stroke:none" />
    <path
       inkscape:connector-curvature="0"
       id="path3157-3-2"
       d="m 14.680193,3.5432999 c 2.024228,0 4.048456,0 6.072685,0 0.708668,0.08 0.46262,0.8926 0.506964,1.3835 0,1.7321 0,3.4641 0,5.1962001 -0.08033,0.7086 -0.892591,0.4626 -1.38353,0.5069 -1.73204,0 -3.464079,0 -5.196119,0 -0.708668,-0.08 -0.46262,-0.8926001 -0.506965,-1.3835001 0,-1.732 0,-3.4641 0,-5.1961 -0.0073,-0.2719 0.235143,-0.5143 0.506965,-0.507 z"
       style="fill:#acacac;fill-opacity:1;fill-rule:nonzero;stroke:none" />
    <path
       inkscape:connector-curvature="0"
       id="path3159-9-3"
       d="m 14.680193,14.1732 c 2.024228,0 4.048456,0 6.072685,0 0.708668,0.08 0.46262,0.8926 0.506964,1.3836 0,1.732 0,3.464 0,5.1961 -0.08033,0.7086 -0.892591,0.4626 -1.38353,0.5069 -1.73204,0 -3.464079,0 -5.196119,0 -0.708668,-0.08 -0.46262,-0.8925 -0.506965,-1.3835 0,-1.732 0,-3.4641 0,-5.1961 -0.0073,-0.2718 0.235143,-0.5143 0.506965,-0.507 z"
       style="fill:#acacac;fill-opacity:1;fill-rule:nonzero;stroke:none" />
  </g>
</svg>
