<?xml version="1.0" encoding="UTF-8" standalone="no"?>
<!-- Created with Inkscape (http://www.inkscape.org/) -->

<svg
   xmlns:dc="http://purl.org/dc/elements/1.1/"
   xmlns:cc="http://creativecommons.org/ns#"
   xmlns:rdf="http://www.w3.org/1999/02/22-rdf-syntax-ns#"
   xmlns:svg="http://www.w3.org/2000/svg"
   xmlns="http://www.w3.org/2000/svg"
   xmlns:sodipodi="http://sodipodi.sourceforge.net/DTD/sodipodi-0.dtd"
   xmlns:inkscape="http://www.inkscape.org/namespaces/inkscape"
   width="35.433071"
   height="35.433071"
   id="svg2"
   version="1.1"
   inkscape:version="0.48.4 r9939"
   sodipodi:docname="random.svg">
  <defs
     id="defs4">
    <linearGradient
       id="linearGradient5256">
      <stop
         style="stop-color:#acacac;stop-opacity:1;"
         offset="0"
         id="stop5258" />
      <stop
         style="stop-color:#acacac;stop-opacity:0.99342108;"
         offset="1"
         id="stop5260" />
    </linearGradient>
    <linearGradient
       id="linearGradient3798">
      <stop
         style="stop-color:#acacac;stop-opacity:1;"
         offset="0"
         id="stop3800" />
      <stop
         style="stop-color:#acacac;stop-opacity:0.68421054;"
         offset="1"
         id="stop3802" />
    </linearGradient>
  </defs>
  <sodipodi:namedview
     id="base"
     pagecolor="#ffffff"
     bordercolor="#666666"
     borderopacity="1.0"
     inkscape:pageopacity="0.0"
     inkscape:pageshadow="2"
     inkscape:zoom="22.279382"
     inkscape:cx="17.848387"
     inkscape:cy="20.215275"
     inkscape:document-units="px"
     inkscape:current-layer="nestor-icon"
     showgrid="true"
     units="cm"
     inkscape:window-width="1920"
     inkscape:window-height="1016"
     inkscape:window-x="0"
     inkscape:window-y="27"
     inkscape:window-maximized="1"
     showguides="true"
     inkscape:guide-bbox="true">
    <inkscape:grid
       type="xygrid"
       id="grid2985"
       empspacing="5"
       visible="true"
       enabled="true"
       snapvisiblegridlinesonly="true"
       units="cm"
       spacingx="0.0125cm"
       spacingy="0.0125cm"
       originx="0cm"
       originy="0cm" />
  </sodipodi:namedview>
  <metadata
     id="metadata7">
    <rdf:RDF>
      <cc:Work
         rdf:about="">
        <dc:format>image/svg+xml</dc:format>
        <dc:type
           rdf:resource="http://purl.org/dc/dcmitype/StillImage" />
        <dc:title />
      </cc:Work>
    </rdf:RDF>
  </metadata>
  <g
     inkscape:label="Calque 1"
     inkscape:groupmode="layer"
     id="nestor-icon"
     transform="translate(0,-1016.9291)">
    <path
       style="fill:#acacac;fill-opacity:1;stroke:none"
       d="m 27.418661,1022.2553 0,2.4497 c -5.486754,0 -8.597395,1.8048 -10.818404,4.1321 0.647038,0.7958 1.261392,1.5943 1.785536,2.3796 0.477395,0.7152 0.920834,1.3792 1.36543,2.0291 1.723097,-2.0443 3.887098,-3.5713 7.667438,-3.5713 l 0,2.4886 7.912484,-4.9733 -7.912484,-4.9345 z m -23.8425265,2.4497 0,4.9695 c 11.9092675,0 7.9635155,14.8811 23.8425265,14.8811 l 0,2.4847 7.912484,-4.9344 -7.912484,-4.9733 0,2.4885 c -11.909268,0 -7.963516,-14.9161 -23.8425265,-14.9161 z m 7.7024505,11.3799 c -1.7203822,2.0348 -3.9350072,3.5362 -7.7024505,3.5362 l 0,4.9345 c 5.4867397,0 8.5973955,-1.7697 10.8184045,-4.0971 -0.651829,-0.8098 -1.258278,-1.6251 -1.785536,-2.4146 -0.466404,-0.7004 -0.895838,-1.3298 -1.330418,-1.959 z"
       id="path4778"
       inkscape:connector-curvature="0" />
  </g>
</svg>
